<svg xmlns="http://www.w3.org/2000/svg" viewBox="0 0 47.167 47.167"><path d="M46.369 28.793c-11.852 5.935-26.271 1.138-32.206-10.714a23.903 23.903 0 01-1.702-17.016C1.197 7.236-3.255 21.263 2.544 32.844 8.479 44.696 22.898 49.493 34.75 43.558c6.364-3.187 10.69-8.821 12.417-15.19-.264.145-.527.29-.798.425z" fill="#bdc3c7"/></svg>47.167 47.167;" xml:space="preserve">
<path style="fill:#BDC3C7;" d="M46.369,28.793c-11.852,5.935-26.271,1.138-32.206-10.714c-2.748-5.488-3.191-11.524-1.702-17.016
	C1.197,7.236-3.255,21.263,2.544,32.844C8.479,44.696,22.898,49.493,34.75,43.558c6.364-3.187,10.69-8.821,12.417-15.19
	C46.903,28.513,46.64,28.658,46.369,28.793z"/>
<g>
</g>
<g>
</g>
<g>
</g>
<g>
</g>
<g>
</g>
<g>
</g>
<g>
</g>
<g>
</g>
<g>
</g>
<g>
</g>
<g>
</g>
<g>
</g>
<g>
</g>
<g>
</g>
<g>
</g>
</svg>
