<svg xmlns="http://www.w3.org/2000/svg" width="489.039" height="489.039"><circle cx="244.52" cy="244.52" r="155.782"/><path d="M244.52 0l-43.761 68.495h87.523zm176.027 200.759v87.523l68.492-43.762zM244.52 489.039l43.762-68.492h-87.523zM68.495 200.759L0 244.52l68.495 43.762zM417.422 71.618l-79.377 17.49 61.889 61.887zm0 345.804l-17.488-79.377-61.889 61.889zM89.108 338.045l-17.49 79.377 79.377-17.488zm61.887-248.937l-79.377-17.49 17.49 79.377z"/></svg>ground:new 0 0 489.039 489.039;"
	 xml:space="preserve">
<g>
	<g>
		<circle cx="244.52" cy="244.52" r="155.782"/>
		<polygon points="244.52,0 200.759,68.495 288.282,68.495 		"/>
		<polygon points="420.547,200.759 420.547,288.282 489.039,244.52 		"/>
		<polygon points="244.52,489.039 288.282,420.547 200.759,420.547 		"/>
		<polygon points="68.495,200.759 0,244.52 68.495,288.282 		"/>
		<polygon points="417.422,71.618 338.045,89.108 399.934,150.995 		"/>
		<polygon points="417.422,417.422 399.934,338.045 338.045,399.934 		"/>
		<polygon points="89.108,338.045 71.618,417.422 150.995,399.934 		"/>
		<polygon points="150.995,89.108 71.618,71.618 89.108,150.995 		"/>
	</g>
</g>
<g>
</g>
<g>
</g>
<g>
</g>
<g>
</g>
<g>
</g>
<g>
</g>
<g>
</g>
<g>
</g>
<g>
</g>
<g>
</g>
<g>
</g>
<g>
</g>
<g>
</g>
<g>
</g>
<g>
</g>
</svg>
